<svg width="121" height="25" viewBox="0 0 121 25" fill="none" xmlns="http://www.w3.org/2000/svg">
<path d="M42.3948 14.8437C42.3948 12.8394 41.3319 12.2017 39.692 12.2017C38.1735 12.2017 37.141 13.052 36.5336 13.8112V24.4099H31.2798V1.72444H36.5032V9.98474C37.475 8.83073 39.4186 7.58561 42.1822 7.58561C45.9175 7.58561 47.6182 9.68106 47.6182 12.7179V24.3795H42.3948V14.8437ZM59.8872 24.3795H65.1106V7.98041H59.8872V18.5791C59.2798 19.3687 58.2473 20.1886 56.7592 20.1886C55.0585 20.1886 54.0564 19.5205 54.0564 17.5466V7.98041H48.833V19.642C48.833 22.6485 50.5032 24.7743 54.2386 24.7743C57.0021 24.7743 58.885 23.5596 59.9175 22.4056V24.3795H59.8872ZM108.022 7.58561C105.44 7.58561 103.314 9.07368 102.343 10.501C101.675 8.55741 100.035 7.58561 97.6963 7.58561C95.2364 7.58561 93.2017 8.92184 92.4121 9.86327C92.3817 9.80253 92.3514 9.71142 92.321 9.65069V9.58995H92.2906C91.501 8.16262 89.9826 7.46414 88.0086 7.46414C87.3709 7.46414 86.7939 7.55524 86.2169 7.70709C84.2125 8.07151 82.5726 9.31663 81.783 10.501C81.1149 8.55741 79.475 7.58561 77.1366 7.58561C74.5553 7.58561 72.4598 9.04331 71.731 9.98474V7.98041H66.5076V24.3795H71.731V13.7808C72.2776 13.1127 73.2494 12.1713 74.6464 12.1713C76.2559 12.1713 76.8329 13.1127 76.8329 14.3882V24.3795H82.0564V13.7808C82.5726 13.1127 83.5748 12.1713 85.0021 12.1713C86.2472 12.1713 86.885 12.7787 87.0976 13.6897V24.3795H87.1583H92.321H92.3514V13.7505C92.898 13.0824 93.8698 12.2017 95.2364 12.2017C96.8459 12.2017 97.423 13.1431 97.423 14.4186V24.4099H102.646V13.7808C103.163 13.1127 104.165 12.1713 105.592 12.1713C107.141 12.1713 107.779 13.1127 107.779 14.3882V24.3795H112.972V12.5054C112.972 9.13442 111.059 7.58561 108.022 7.58561ZM120.017 10.9565C120.017 11.7461 119.714 12.475 119.167 13.0216C118.62 13.5683 117.891 13.8719 117.102 13.8719C116.312 13.8719 115.583 13.5683 115.037 13.0216C114.49 12.475 114.187 11.7461 114.187 10.9565C114.187 10.167 114.49 9.43811 115.037 8.89147C115.583 8.34483 116.312 8.04114 117.102 8.04114C117.891 8.04114 118.62 8.34483 119.167 8.89147C119.714 9.43811 120.017 10.167 120.017 10.9565ZM119.288 10.9565C119.288 9.74179 118.317 8.76999 117.102 8.76999C115.887 8.76999 114.915 9.74179 114.915 10.9565C114.915 12.1713 115.887 13.1431 117.102 13.1431C118.317 13.1127 119.288 12.1409 119.288 10.9565ZM118.499 10.167V11.7461C118.499 12.4446 117.922 12.6268 117.497 12.6268C117.193 12.6268 116.95 12.5661 116.737 12.3839L116.98 11.9891C117.102 12.1409 117.314 12.2017 117.497 12.2017C117.679 12.2017 117.952 12.1106 117.952 11.7765V11.655C117.8 11.8372 117.649 11.898 117.436 11.898C117.011 11.898 116.677 11.5943 116.677 11.0173C116.677 10.8654 116.677 10.744 116.707 10.6225H116.434V11.8676H115.887V10.6225H115.614V10.1366H115.887V10.0455C115.887 9.68106 116.16 9.43811 116.495 9.43811C116.646 9.43811 116.768 9.46848 116.859 9.52921L116.768 9.89364C116.737 9.86327 116.677 9.86327 116.616 9.86327C116.495 9.86327 116.434 9.92401 116.434 10.0759V10.1366H117.284C117.375 10.1366 117.861 10.1062 117.922 10.3795V10.167H118.499ZM117.952 10.7743C117.891 10.6832 117.74 10.6225 117.618 10.6225C117.406 10.6225 117.254 10.744 117.254 11.0173C117.254 11.2602 117.406 11.4121 117.618 11.4121C117.74 11.4121 117.891 11.3513 117.952 11.2602V10.7743ZM25.0239 16.3622V24.3492H13.4534C13.3926 24.3492 13.3319 24.3492 13.2408 24.3492C6.74186 24.3492 1.48807 19.0954 1.48807 12.5965C1.48807 11.5943 1.60954 10.6225 1.85249 9.68106C2.06507 8.40557 1.03254 6.34049 0 4.9739C1.70065 5.15611 4.19089 5.03464 4.95011 4.27542C7.07592 2.14961 10.0217 0.84375 13.2711 0.84375C16.3688 0.84375 19.193 2.02813 21.2885 4.0021L21.4707 4.27542L13.5748 12.1713C13.3926 12.3535 13.3926 12.6268 13.5748 12.809C13.6659 12.9001 13.7874 12.9305 13.9089 12.9305C14.0304 12.9305 14.1518 12.9001 14.2429 12.809L25.5098 1.51186C29.2451 5.76349 29.0933 12.2928 25.0239 16.3622ZM8.35141 8.04114C9.26247 8.04114 10.0217 7.31229 10.0217 6.37086C10.0217 5.4598 9.29284 4.70058 8.35141 4.70058C8.04772 4.70058 7.74403 4.79169 7.50108 4.94353H7.53145C8.01735 4.94353 8.44251 5.33833 8.44251 5.85459C8.44251 6.37086 8.04772 6.76566 7.53145 6.76566C7.16702 6.76566 6.83297 6.52271 6.71149 6.21902V6.24939C6.71149 6.27976 6.71149 6.34049 6.71149 6.37086C6.71149 6.61381 6.77223 6.82639 6.83297 7.03897C7.07592 7.64635 7.68329 8.04114 8.35141 8.04114Z" fill="#FF6C00"/>
</svg>
